<mxfile host="app.diagrams.net" modified="2023-07-24T05:05:17.995Z" agent="Mozilla/5.0 (Windows NT 10.0; Win64; x64) AppleWebKit/537.36 (KHTML, like Gecko) Chrome/114.0.0.0 Safari/537.36" etag="dzW7FOL4Ps_ltdPQl4FD" version="21.6.5" type="github">
  <diagram name="Page-1" id="x75RozoV3CZuHT7u76bP">
    <mxGraphModel dx="1563" dy="577" grid="1" gridSize="10" guides="1" tooltips="1" connect="1" arrows="1" fold="1" page="1" pageScale="1" pageWidth="850" pageHeight="1100" math="0" shadow="0">
      <root>
        <mxCell id="0" />
        <mxCell id="1" parent="0" />
        <mxCell id="XsTprEz2VQx7mzp5gVJZ-25" value="" style="rounded=1;whiteSpace=wrap;html=1;" vertex="1" parent="1">
          <mxGeometry x="130" y="235" width="120" height="120" as="geometry" />
        </mxCell>
        <mxCell id="XsTprEz2VQx7mzp5gVJZ-2" value="Client&lt;br&gt;Win/Mac/IOS" style="rounded=1;whiteSpace=wrap;html=1;" vertex="1" parent="1">
          <mxGeometry x="145" y="140" width="560" height="60" as="geometry" />
        </mxCell>
        <mxCell id="XsTprEz2VQx7mzp5gVJZ-4" value="Chat Server" style="rounded=1;whiteSpace=wrap;html=1;" vertex="1" parent="1">
          <mxGeometry x="145" y="390" width="415" height="60" as="geometry" />
        </mxCell>
        <mxCell id="XsTprEz2VQx7mzp5gVJZ-5" value="" style="endArrow=classic;html=1;rounded=0;exitX=0.053;exitY=1.07;exitDx=0;exitDy=0;exitPerimeter=0;entryX=0.071;entryY=-0.039;entryDx=0;entryDy=0;entryPerimeter=0;" edge="1" parent="1" source="XsTprEz2VQx7mzp5gVJZ-2" target="XsTprEz2VQx7mzp5gVJZ-4">
          <mxGeometry width="50" height="50" relative="1" as="geometry">
            <mxPoint x="360" y="310" as="sourcePoint" />
            <mxPoint x="410" y="260" as="targetPoint" />
          </mxGeometry>
        </mxCell>
        <mxCell id="XsTprEz2VQx7mzp5gVJZ-6" value="HTTP&lt;br&gt;keep-alive = true" style="edgeLabel;html=1;align=center;verticalAlign=middle;resizable=0;points=[];" vertex="1" connectable="0" parent="XsTprEz2VQx7mzp5gVJZ-5">
          <mxGeometry x="-0.1048" y="1" relative="1" as="geometry">
            <mxPoint as="offset" />
          </mxGeometry>
        </mxCell>
        <mxCell id="XsTprEz2VQx7mzp5gVJZ-7" value="" style="endArrow=classic;html=1;rounded=0;entryX=0.206;entryY=1.03;entryDx=0;entryDy=0;entryPerimeter=0;" edge="1" parent="1">
          <mxGeometry width="50" height="50" relative="1" as="geometry">
            <mxPoint x="204" y="390" as="sourcePoint" />
            <mxPoint x="204.36000000000013" y="201.79999999999995" as="targetPoint" />
          </mxGeometry>
        </mxCell>
        <mxCell id="XsTprEz2VQx7mzp5gVJZ-10" value="Polling/Long Polling&amp;nbsp;" style="text;html=1;strokeColor=none;fillColor=none;align=center;verticalAlign=middle;whiteSpace=wrap;rounded=0;" vertex="1" parent="1">
          <mxGeometry x="180" y="309.67" width="60" height="30" as="geometry" />
        </mxCell>
        <mxCell id="XsTprEz2VQx7mzp5gVJZ-11" value="" style="endArrow=classic;startArrow=classic;html=1;rounded=0;entryX=0.569;entryY=0.99;entryDx=0;entryDy=0;entryPerimeter=0;exitX=0.568;exitY=-0.03;exitDx=0;exitDy=0;exitPerimeter=0;" edge="1" parent="1">
          <mxGeometry width="50" height="50" relative="1" as="geometry">
            <mxPoint x="391.0799999999999" y="388.19999999999993" as="sourcePoint" />
            <mxPoint x="391.6399999999999" y="199.39999999999998" as="targetPoint" />
          </mxGeometry>
        </mxCell>
        <mxCell id="XsTprEz2VQx7mzp5gVJZ-12" value="WebSocket&lt;br&gt;Bi-directional&lt;br&gt;Persistent" style="edgeLabel;html=1;align=center;verticalAlign=middle;resizable=0;points=[];" vertex="1" connectable="0" parent="XsTprEz2VQx7mzp5gVJZ-11">
          <mxGeometry x="-0.0162" y="1" relative="1" as="geometry">
            <mxPoint y="54" as="offset" />
          </mxGeometry>
        </mxCell>
        <mxCell id="XsTprEz2VQx7mzp5gVJZ-14" value="Chat DB" style="shape=cylinder3;whiteSpace=wrap;html=1;boundedLbl=1;backgroundOutline=1;size=15;" vertex="1" parent="1">
          <mxGeometry x="155" y="510" width="405" height="50" as="geometry" />
        </mxCell>
        <mxCell id="XsTprEz2VQx7mzp5gVJZ-16" value="Chat&lt;br&gt;Cache" style="rounded=1;whiteSpace=wrap;html=1;" vertex="1" parent="1">
          <mxGeometry x="150" y="460" width="410" height="40" as="geometry" />
        </mxCell>
        <mxCell id="XsTprEz2VQx7mzp5gVJZ-17" value="User Service" style="rounded=1;whiteSpace=wrap;html=1;" vertex="1" parent="1">
          <mxGeometry x="513" y="314.67" width="50" height="40" as="geometry" />
        </mxCell>
        <mxCell id="XsTprEz2VQx7mzp5gVJZ-20" value="Load Balancer" style="rounded=1;whiteSpace=wrap;html=1;" vertex="1" parent="1">
          <mxGeometry x="513" y="259.67" width="50" height="40" as="geometry" />
        </mxCell>
        <mxCell id="XsTprEz2VQx7mzp5gVJZ-22" value="" style="endArrow=classic;html=1;rounded=0;entryX=0.5;entryY=0;entryDx=0;entryDy=0;exitX=0.964;exitY=1.011;exitDx=0;exitDy=0;exitPerimeter=0;" edge="1" parent="1" target="XsTprEz2VQx7mzp5gVJZ-20">
          <mxGeometry width="50" height="50" relative="1" as="geometry">
            <mxPoint x="537.8400000000001" y="200.32999999999996" as="sourcePoint" />
            <mxPoint x="693" y="199.67" as="targetPoint" />
          </mxGeometry>
        </mxCell>
        <mxCell id="XsTprEz2VQx7mzp5gVJZ-69" value="Login" style="edgeLabel;html=1;align=center;verticalAlign=middle;resizable=0;points=[];" vertex="1" connectable="0" parent="XsTprEz2VQx7mzp5gVJZ-22">
          <mxGeometry x="-0.315" relative="1" as="geometry">
            <mxPoint as="offset" />
          </mxGeometry>
        </mxCell>
        <mxCell id="XsTprEz2VQx7mzp5gVJZ-23" value="" style="endArrow=classic;html=1;rounded=0;entryX=0.496;entryY=0.029;entryDx=0;entryDy=0;exitX=0.964;exitY=1.011;exitDx=0;exitDy=0;exitPerimeter=0;entryPerimeter=0;" edge="1" parent="1" target="XsTprEz2VQx7mzp5gVJZ-17">
          <mxGeometry width="50" height="50" relative="1" as="geometry">
            <mxPoint x="537.92" y="299.67" as="sourcePoint" />
            <mxPoint x="537.92" y="318.67" as="targetPoint" />
          </mxGeometry>
        </mxCell>
        <mxCell id="XsTprEz2VQx7mzp5gVJZ-26" value="" style="endArrow=classic;html=1;rounded=0;exitX=-0.025;exitY=0.41;exitDx=0;exitDy=0;exitPerimeter=0;" edge="1" parent="1" source="XsTprEz2VQx7mzp5gVJZ-25">
          <mxGeometry width="50" height="50" relative="1" as="geometry">
            <mxPoint x="10" y="180" as="sourcePoint" />
            <mxPoint x="110" y="284" as="targetPoint" />
          </mxGeometry>
        </mxCell>
        <mxCell id="XsTprEz2VQx7mzp5gVJZ-27" value="Bad!" style="text;html=1;strokeColor=none;fillColor=none;align=center;verticalAlign=middle;whiteSpace=wrap;rounded=0;" vertex="1" parent="1">
          <mxGeometry x="70" y="270" width="40" height="30" as="geometry" />
        </mxCell>
        <mxCell id="XsTprEz2VQx7mzp5gVJZ-28" value="" style="endArrow=classic;html=1;rounded=0;exitX=0.427;exitY=1.028;exitDx=0;exitDy=0;exitPerimeter=0;entryX=0.5;entryY=0;entryDx=0;entryDy=0;" edge="1" parent="1" target="XsTprEz2VQx7mzp5gVJZ-32">
          <mxGeometry width="50" height="50" relative="1" as="geometry">
            <mxPoint x="285.1200000000001" y="200.00000000000006" as="sourcePoint" />
            <mxPoint x="289" y="258.32" as="targetPoint" />
          </mxGeometry>
        </mxCell>
        <mxCell id="XsTprEz2VQx7mzp5gVJZ-29" value="HTTP" style="edgeLabel;html=1;align=center;verticalAlign=middle;resizable=0;points=[];" vertex="1" connectable="0" parent="XsTprEz2VQx7mzp5gVJZ-28">
          <mxGeometry x="-0.1066" y="-1" relative="1" as="geometry">
            <mxPoint x="2" y="3" as="offset" />
          </mxGeometry>
        </mxCell>
        <mxCell id="XsTprEz2VQx7mzp5gVJZ-30" value="" style="endArrow=classic;html=1;rounded=0;exitX=1;exitY=0.5;exitDx=0;exitDy=0;" edge="1" parent="1" source="XsTprEz2VQx7mzp5gVJZ-55">
          <mxGeometry width="50" height="50" relative="1" as="geometry">
            <mxPoint x="311" y="322" as="sourcePoint" />
            <mxPoint x="391" y="320" as="targetPoint" />
          </mxGeometry>
        </mxCell>
        <mxCell id="XsTprEz2VQx7mzp5gVJZ-32" value="Load Balancer" style="rounded=1;whiteSpace=wrap;html=1;" vertex="1" parent="1">
          <mxGeometry x="261" y="228.32" width="50" height="40" as="geometry" />
        </mxCell>
        <mxCell id="XsTprEz2VQx7mzp5gVJZ-33" value="" style="endArrow=classic;html=1;rounded=0;exitX=0.5;exitY=1;exitDx=0;exitDy=0;" edge="1" parent="1" source="XsTprEz2VQx7mzp5gVJZ-32">
          <mxGeometry width="50" height="50" relative="1" as="geometry">
            <mxPoint x="289.78000000000026" y="303.32" as="sourcePoint" />
            <mxPoint x="287" y="300" as="targetPoint" />
          </mxGeometry>
        </mxCell>
        <mxCell id="XsTprEz2VQx7mzp5gVJZ-37" value="Notification Service" style="rounded=1;whiteSpace=wrap;html=1;" vertex="1" parent="1">
          <mxGeometry x="422" y="270" width="70" height="55" as="geometry" />
        </mxCell>
        <mxCell id="XsTprEz2VQx7mzp5gVJZ-38" value="" style="endArrow=classic;html=1;rounded=0;entryX=0.5;entryY=1;entryDx=0;entryDy=0;exitX=0.767;exitY=-0.01;exitDx=0;exitDy=0;exitPerimeter=0;" edge="1" parent="1" target="XsTprEz2VQx7mzp5gVJZ-37">
          <mxGeometry width="50" height="50" relative="1" as="geometry">
            <mxPoint x="456.52" y="389.4" as="sourcePoint" />
            <mxPoint x="-298" y="560" as="targetPoint" />
          </mxGeometry>
        </mxCell>
        <mxCell id="XsTprEz2VQx7mzp5gVJZ-39" value="" style="endArrow=classic;html=1;rounded=0;entryX=0.769;entryY=1;entryDx=0;entryDy=0;exitX=0.5;exitY=0;exitDx=0;exitDy=0;entryPerimeter=0;" edge="1" parent="1" source="XsTprEz2VQx7mzp5gVJZ-37">
          <mxGeometry width="50" height="50" relative="1" as="geometry">
            <mxPoint x="-168" y="410" as="sourcePoint" />
            <mxPoint x="457.6399999999999" y="199.9999999999999" as="targetPoint" />
          </mxGeometry>
        </mxCell>
        <mxCell id="XsTprEz2VQx7mzp5gVJZ-40" value="User DB" style="shape=cylinder3;whiteSpace=wrap;html=1;boundedLbl=1;backgroundOutline=1;size=15;" vertex="1" parent="1">
          <mxGeometry x="643" y="294.67" width="50" height="50" as="geometry" />
        </mxCell>
        <mxCell id="XsTprEz2VQx7mzp5gVJZ-41" style="edgeStyle=orthogonalEdgeStyle;rounded=0;orthogonalLoop=1;jettySize=auto;html=1;entryX=1;entryY=0.5;entryDx=0;entryDy=0;" edge="1" parent="1" source="XsTprEz2VQx7mzp5gVJZ-42">
          <mxGeometry relative="1" as="geometry">
            <mxPoint x="563" y="319.67" as="targetPoint" />
          </mxGeometry>
        </mxCell>
        <mxCell id="XsTprEz2VQx7mzp5gVJZ-42" value="User&lt;br&gt;Cache" style="rounded=1;whiteSpace=wrap;html=1;" vertex="1" parent="1">
          <mxGeometry x="583" y="299.67" width="40" height="40" as="geometry" />
        </mxCell>
        <mxCell id="XsTprEz2VQx7mzp5gVJZ-43" value="" style="endArrow=classic;html=1;rounded=0;entryX=1;entryY=0.5;entryDx=0;entryDy=0;exitX=0;exitY=0.5;exitDx=0;exitDy=0;exitPerimeter=0;" edge="1" parent="1" source="XsTprEz2VQx7mzp5gVJZ-40" target="XsTprEz2VQx7mzp5gVJZ-42">
          <mxGeometry width="50" height="50" relative="1" as="geometry">
            <mxPoint x="523" y="559.67" as="sourcePoint" />
            <mxPoint x="573" y="509.66999999999996" as="targetPoint" />
          </mxGeometry>
        </mxCell>
        <mxCell id="XsTprEz2VQx7mzp5gVJZ-45" value="Presence Service" style="rounded=1;whiteSpace=wrap;html=1;" vertex="1" parent="1">
          <mxGeometry x="578" y="240" width="60" height="40" as="geometry" />
        </mxCell>
        <mxCell id="XsTprEz2VQx7mzp5gVJZ-47" value="" style="endArrow=classic;html=1;rounded=0;exitX=0.93;exitY=1.039;exitDx=0;exitDy=0;exitPerimeter=0;entryX=0.34;entryY=-0.004;entryDx=0;entryDy=0;entryPerimeter=0;" edge="1" parent="1" target="XsTprEz2VQx7mzp5gVJZ-45">
          <mxGeometry width="50" height="50" relative="1" as="geometry">
            <mxPoint x="598.8" y="202.33999999999992" as="sourcePoint" />
            <mxPoint x="713" y="230" as="targetPoint" />
          </mxGeometry>
        </mxCell>
        <mxCell id="XsTprEz2VQx7mzp5gVJZ-48" value="heart beat" style="edgeLabel;html=1;align=center;verticalAlign=middle;resizable=0;points=[];" vertex="1" connectable="0" parent="XsTprEz2VQx7mzp5gVJZ-47">
          <mxGeometry x="0.1301" y="2" relative="1" as="geometry">
            <mxPoint as="offset" />
          </mxGeometry>
        </mxCell>
        <mxCell id="XsTprEz2VQx7mzp5gVJZ-51" value="Presence&amp;nbsp;&lt;br&gt;Cache" style="rounded=1;whiteSpace=wrap;html=1;" vertex="1" parent="1">
          <mxGeometry x="663" y="240" width="65" height="40" as="geometry" />
        </mxCell>
        <mxCell id="XsTprEz2VQx7mzp5gVJZ-52" value="" style="endArrow=classic;html=1;rounded=0;exitX=1;exitY=0.5;exitDx=0;exitDy=0;" edge="1" parent="1" source="XsTprEz2VQx7mzp5gVJZ-45">
          <mxGeometry width="50" height="50" relative="1" as="geometry">
            <mxPoint x="833" y="330" as="sourcePoint" />
            <mxPoint x="663" y="260" as="targetPoint" />
          </mxGeometry>
        </mxCell>
        <mxCell id="XsTprEz2VQx7mzp5gVJZ-53" value="Message Queue" style="rounded=1;whiteSpace=wrap;html=1;" vertex="1" parent="1">
          <mxGeometry x="593" y="400" width="100" height="40" as="geometry" />
        </mxCell>
        <mxCell id="XsTprEz2VQx7mzp5gVJZ-55" value="FrontEnd&lt;br&gt;Service" style="rounded=1;whiteSpace=wrap;html=1;" vertex="1" parent="1">
          <mxGeometry x="261" y="299.67" width="60" height="40" as="geometry" />
        </mxCell>
        <mxCell id="XsTprEz2VQx7mzp5gVJZ-56" value="" style="endArrow=classic;html=1;rounded=0;exitX=0.5;exitY=0;exitDx=0;exitDy=0;entryX=0.984;entryY=0.993;entryDx=0;entryDy=0;entryPerimeter=0;" edge="1" parent="1" source="XsTprEz2VQx7mzp5gVJZ-51" target="XsTprEz2VQx7mzp5gVJZ-2">
          <mxGeometry width="50" height="50" relative="1" as="geometry">
            <mxPoint x="780" y="260" as="sourcePoint" />
            <mxPoint x="830" y="210" as="targetPoint" />
          </mxGeometry>
        </mxCell>
        <mxCell id="XsTprEz2VQx7mzp5gVJZ-59" value="&lt;font style=&quot;text-align: left; border-color: var(--border-color); font-size: 7px;&quot;&gt;Message Id:&amp;nbsp;&lt;/font&gt;&lt;span style=&quot;font-size: 7px;&quot;&gt;Sort by reverse chronological order&lt;br&gt;&lt;div style=&quot;text-align: left;&quot;&gt;&lt;span style=&quot;background-color: initial;&quot;&gt;Unique within the chat&lt;/span&gt;&lt;/div&gt;&lt;/span&gt;" style="text;html=1;strokeColor=none;fillColor=none;align=center;verticalAlign=middle;whiteSpace=wrap;rounded=0;" vertex="1" parent="1">
          <mxGeometry x="593" y="430" width="170" height="50" as="geometry" />
        </mxCell>
        <mxCell id="XsTprEz2VQx7mzp5gVJZ-62" value="Long Term Storage" style="rounded=1;whiteSpace=wrap;html=1;" vertex="1" parent="1">
          <mxGeometry x="155" y="570" width="405" height="40" as="geometry" />
        </mxCell>
        <mxCell id="XsTprEz2VQx7mzp5gVJZ-65" value="Rate Limiting" style="text;html=1;strokeColor=none;fillColor=none;align=center;verticalAlign=middle;whiteSpace=wrap;rounded=0;" vertex="1" parent="1">
          <mxGeometry x="290" y="284.83000000000004" width="90" height="20.33" as="geometry" />
        </mxCell>
        <mxCell id="XsTprEz2VQx7mzp5gVJZ-67" value="Service Discovery&lt;div style=&quot;line-height: 50%;&quot;&gt;&lt;span style=&quot;background-color: initial; font-size: 7px;&quot;&gt;Geological Location&lt;/span&gt;&lt;/div&gt;&lt;div style=&quot;line-height: 50%;&quot;&gt;&lt;span style=&quot;font-size: 7px;&quot;&gt;Server Load&lt;/span&gt;&lt;/div&gt;" style="text;html=1;strokeColor=none;fillColor=none;align=left;verticalAlign=middle;whiteSpace=wrap;rounded=0;" vertex="1" parent="1">
          <mxGeometry x="250" y="350" width="101" height="30" as="geometry" />
        </mxCell>
        <mxCell id="XsTprEz2VQx7mzp5gVJZ-70" value="&lt;br&gt;1. Platform supported? (IOS/Android/WEB/Desktop)&lt;br&gt;&lt;div style=&quot;text-align: left;&quot;&gt;&lt;span style=&quot;background-color: initial;&quot;&gt;2. Group Chat, Presence Status? Message Status?&lt;/span&gt;&lt;/div&gt;&lt;div style=&quot;text-align: left;&quot;&gt;&lt;span style=&quot;background-color: initial;&quot;&gt;3. Scale/Volume?&lt;/span&gt;&lt;/div&gt;&lt;div style=&quot;text-align: left;&quot;&gt;&lt;span style=&quot;background-color: initial;&quot;&gt;4. Multi-media?&lt;/span&gt;&lt;/div&gt;" style="text;html=1;strokeColor=none;fillColor=none;align=center;verticalAlign=middle;whiteSpace=wrap;rounded=0;" vertex="1" parent="1">
          <mxGeometry x="120" y="50" width="360" height="80" as="geometry" />
        </mxCell>
        <mxCell id="XsTprEz2VQx7mzp5gVJZ-72" value="" style="endArrow=classic;html=1;rounded=0;exitX=1;exitY=0.5;exitDx=0;exitDy=0;entryX=0;entryY=0.5;entryDx=0;entryDy=0;" edge="1" parent="1" source="XsTprEz2VQx7mzp5gVJZ-4" target="XsTprEz2VQx7mzp5gVJZ-53">
          <mxGeometry width="50" height="50" relative="1" as="geometry">
            <mxPoint x="620" y="420" as="sourcePoint" />
            <mxPoint x="670" y="370" as="targetPoint" />
          </mxGeometry>
        </mxCell>
        <mxCell id="XsTprEz2VQx7mzp5gVJZ-80" value="Friends DB" style="shape=cylinder3;whiteSpace=wrap;html=1;boundedLbl=1;backgroundOutline=1;size=15;" vertex="1" parent="1">
          <mxGeometry x="643" y="344.67" width="67" height="50" as="geometry" />
        </mxCell>
        <mxCell id="XsTprEz2VQx7mzp5gVJZ-81" style="edgeStyle=orthogonalEdgeStyle;rounded=0;orthogonalLoop=1;jettySize=auto;html=1;entryX=0.5;entryY=1;entryDx=0;entryDy=0;" edge="1" parent="1" source="XsTprEz2VQx7mzp5gVJZ-82" target="XsTprEz2VQx7mzp5gVJZ-17">
          <mxGeometry relative="1" as="geometry">
            <mxPoint x="563" y="369.67" as="targetPoint" />
            <Array as="points">
              <mxPoint x="538" y="375" />
            </Array>
          </mxGeometry>
        </mxCell>
        <mxCell id="XsTprEz2VQx7mzp5gVJZ-82" value="Friends Cache" style="rounded=1;whiteSpace=wrap;html=1;" vertex="1" parent="1">
          <mxGeometry x="583" y="349.67" width="40" height="40" as="geometry" />
        </mxCell>
        <mxCell id="XsTprEz2VQx7mzp5gVJZ-83" value="" style="endArrow=classic;html=1;rounded=0;entryX=1;entryY=0.5;entryDx=0;entryDy=0;exitX=0;exitY=0.5;exitDx=0;exitDy=0;exitPerimeter=0;" edge="1" parent="1" source="XsTprEz2VQx7mzp5gVJZ-80" target="XsTprEz2VQx7mzp5gVJZ-82">
          <mxGeometry width="50" height="50" relative="1" as="geometry">
            <mxPoint x="523" y="609.67" as="sourcePoint" />
            <mxPoint x="573" y="559.67" as="targetPoint" />
          </mxGeometry>
        </mxCell>
        <mxCell id="XsTprEz2VQx7mzp5gVJZ-84" value="GraphDB" style="text;html=1;strokeColor=none;fillColor=none;align=center;verticalAlign=middle;whiteSpace=wrap;rounded=0;" vertex="1" parent="1">
          <mxGeometry x="645" y="345" width="60" height="30" as="geometry" />
        </mxCell>
        <mxCell id="XsTprEz2VQx7mzp5gVJZ-85" value="RDBS" style="text;html=1;strokeColor=none;fillColor=none;align=center;verticalAlign=middle;whiteSpace=wrap;rounded=0;" vertex="1" parent="1">
          <mxGeometry x="638" y="295" width="60" height="30" as="geometry" />
        </mxCell>
        <mxCell id="XsTprEz2VQx7mzp5gVJZ-86" value="NoSQL" style="text;html=1;strokeColor=none;fillColor=none;align=center;verticalAlign=middle;whiteSpace=wrap;rounded=0;" vertex="1" parent="1">
          <mxGeometry x="323" y="510" width="60" height="30" as="geometry" />
        </mxCell>
        <mxCell id="XsTprEz2VQx7mzp5gVJZ-87" value="R/W Ratio : 1 to 1" style="text;html=1;strokeColor=none;fillColor=none;align=center;verticalAlign=middle;whiteSpace=wrap;rounded=0;" vertex="1" parent="1">
          <mxGeometry x="523" y="80" width="127" height="30" as="geometry" />
        </mxCell>
      </root>
    </mxGraphModel>
  </diagram>
</mxfile>
